<?xml version="1.0" encoding="UTF-8" standalone="no"?>
<svg
   xmlns:dc="http://purl.org/dc/elements/1.1/"
   xmlns:cc="http://creativecommons.org/ns#"
   xmlns:rdf="http://www.w3.org/1999/02/22-rdf-syntax-ns#"
   xmlns:svg="http://www.w3.org/2000/svg"
   xmlns="http://www.w3.org/2000/svg"
   width="16"
   version="1.1"
   style="enable-background:new"
   id="svg7384"
   height="16">
  <metadata
     id="metadata90">
    <rdf:RDF>
      <cc:Work
         rdf:about="">
        <dc:format>image/svg+xml</dc:format>
        <dc:type
           rdf:resource="http://purl.org/dc/dcmitype/StillImage" />
        <dc:title>Gnome Symbolic Icons</dc:title>
        <cc:license
           rdf:resource="http://creativecommons.org/licenses/by-sa/4.0/" />
      </cc:Work>
      <cc:License
         rdf:about="http://creativecommons.org/licenses/by-sa/4.0/">
        <cc:permits
           rdf:resource="http://creativecommons.org/ns#Reproduction" />
        <cc:permits
           rdf:resource="http://creativecommons.org/ns#Distribution" />
        <cc:requires
           rdf:resource="http://creativecommons.org/ns#Notice" />
        <cc:requires
           rdf:resource="http://creativecommons.org/ns#Attribution" />
        <cc:permits
           rdf:resource="http://creativecommons.org/ns#DerivativeWorks" />
        <cc:requires
           rdf:resource="http://creativecommons.org/ns#ShareAlike" />
      </cc:License>
    </rdf:RDF>
  </metadata>
  <title
     id="title8473">Gnome Symbolic Icons</title>
  <defs
     id="defs7386" />
  <g
     transform="translate(-551.99698,-432.00004)"
     id="layer10" />
  <g
     transform="translate(-551.99698,-368.00004)"
     id="layer1" />
  <g
     transform="translate(-551.99698,-368.00004)"
     id="layer7" />
  <g
     transform="translate(-551.99698,-368.00004)"
     id="layer6" />
  <g
     transform="translate(-551.99698,-368.00004)"
     id="layer5" />
  <g
     transform="translate(-551.99698,-368.00004)"
     id="layer9" />
  <g
     transform="translate(-551.99698,-368.00004)"
     id="layer2" />
  <g
     transform="translate(-551.99698,-368.00004)"
     id="layer8">
    <rect
       height="0"
       id="rect3703"
       style="opacity:1;vector-effect:none;fill:none;fill-opacity:1;stroke:#2e3436;stroke-width:2;stroke-linecap:butt;stroke-linejoin:miter;stroke-miterlimit:4;stroke-dasharray:none;stroke-dashoffset:0;stroke-opacity:1;marker:none;marker-start:none;marker-mid:none;marker-end:none;paint-order:normal"
       width="0"
       x="251.99698"
       y="104.00004" />
    <path
       d="m 558,369 c 0,0 -3,0 -3,3 v 5 c 0,0 0.0439,1.41871 0.0283,2.00046 0,0.99958 -0.5377,1.41303 -1.40438,2.12067 -0.62725,0.48985 -0.77411,1.31026 -0.30664,1.69727 0.42932,0.35542 1.16167,0.30404 1.66016,-0.34375 l 1.01954,-1.47461 c 0.69754,-1.01395 0.98273,-1.87583 1,-3 L 556.99998,372 c 5.2e-4,-1 0.997,-0.99996 0.997,-0.99996 v 6.57422 L 561,374.5 V 372 c 0,-1 0.99698,-0.99996 0.99698,-0.99996 l 0.003,2.49996 1.997,-2.03512 c 0.33843,-0.31195 0.50302,-0.46488 1,-0.46484 l 0.003,0.99996 -4.003,4.00004 h 4 c 0,0 0.003,1 -1,1 h -4 l -2,2 c 0,0.42593 0,2.00586 2,2.00586 L 564,380.9999 c 0,0 3,0 2.99698,-2.99019 v -9.00967 z"
       id="path3705"
       style="color:#000000;font-style:normal;font-variant:normal;font-weight:normal;font-stretch:normal;font-size:medium;line-height:normal;font-family:sans-serif;font-variant-ligatures:normal;font-variant-position:normal;font-variant-caps:normal;font-variant-numeric:normal;font-variant-alternates:normal;font-feature-settings:normal;text-indent:0;text-align:start;text-decoration:none;text-decoration-line:none;text-decoration-style:solid;text-decoration-color:#000000;letter-spacing:normal;word-spacing:normal;text-transform:none;writing-mode:lr-tb;direction:ltr;text-orientation:mixed;dominant-baseline:auto;baseline-shift:baseline;text-anchor:start;white-space:normal;shape-padding:0;clip-rule:nonzero;display:inline;overflow:visible;visibility:visible;opacity:1;isolation:auto;mix-blend-mode:normal;color-interpolation:sRGB;color-interpolation-filters:linearRGB;solid-color:#000000;solid-opacity:1;vector-effect:none;fill:#2e3436;fill-opacity:1;fill-rule:nonzero;stroke:none;stroke-width:1px;stroke-linecap:round;stroke-linejoin:miter;stroke-miterlimit:4;stroke-dasharray:none;stroke-dashoffset:0;stroke-opacity:1;color-rendering:auto;image-rendering:auto;shape-rendering:auto;text-rendering:auto;enable-background:accumulate" />
  </g>
  <g
     transform="translate(-551.99698,-368.00004)"
     id="layer3" />
  <g
     transform="translate(-551.99698,-368.00004)"
     id="layer4" />
</svg>
