<svg xmlns="http://www.w3.org/2000/svg" width="16" height="16">
    <path d="M8 0C3.594 0 0 3.594 0 8c0 4.406 3.594 8 8 8 4.406 0 8-3.594 8-8 0-4.406-3.594-8-8-8zm0 2c.038 0 .075.005.113.006A4.993 4.993 0 0 0 9.541 6.61a4.999 4.999 0 0 0 4.453 1.283c0 .036.006.07.006.107 0 3.326-2.674 6-6 6-.039 0-.076-.005-.115-.006a4.992 4.992 0 0 0-1.281-4.46 4.994 4.994 0 0 0-3.35-1.528 4.992 4.992 0 0 0-1.248.1C2.006 8.07 2 8.036 2 8c0-3.326 2.674-6 6-6zm1.113.105a5.977 5.977 0 0 1 4.782 4.786 3.99 3.99 0 0 1-3.663-1.002 3.987 3.987 0 0 1-1.119-3.784zM3.205 9.004a3.99 3.99 0 0 1 3.684 4.89 5.976 5.976 0 0 1-4.784-4.789c.364-.083.734-.12 1.1-.101z" style="line-height:normal;font-variant-ligatures:normal;font-variant-position:normal;font-variant-caps:normal;font-variant-numeric:normal;font-variant-alternates:normal;font-feature-settings:normal;text-indent:0;text-align:start;text-decoration-line:none;text-decoration-style:solid;text-decoration-color:#000;text-transform:none;text-orientation:mixed;shape-padding:0;isolation:auto;mix-blend-mode:normal" color="#000" font-weight="400" font-family="sans-serif" white-space="normal" overflow="visible" fill="#2e3436"/>
</svg>
