<?xml version="1.0" encoding="UTF-8" standalone="no"?>
<svg
   xmlns:dc="http://purl.org/dc/elements/1.1/"
   xmlns:cc="http://creativecommons.org/ns#"
   xmlns:rdf="http://www.w3.org/1999/02/22-rdf-syntax-ns#"
   xmlns:svg="http://www.w3.org/2000/svg"
   xmlns="http://www.w3.org/2000/svg"
   width="100px"
   height="100px"
   viewBox="0 0 183.1335 183.1335"
   version="1.1"
   id="svg168">
  <defs
     id="defs162">
    <clipPath
       clipPathUnits="userSpaceOnUse"
       id="clipPath2310">
      <circle
         style="fill:#f2c011;fill-opacity:1;stroke:none;stroke-width:0;stroke-miterlimit:4;stroke-dasharray:none"
         id="circle2312"
         cx="104.91895"
         cy="158.39403"
         r="82.542023" />
    </clipPath>
    <clipPath
       clipPathUnits="userSpaceOnUse"
       id="clipPath2314">
      <circle
         style="fill:#f2c011;fill-opacity:1;stroke:none;stroke-width:0;stroke-miterlimit:4;stroke-dasharray:none"
         id="circle2316"
         cx="104.91895"
         cy="158.39403"
         r="82.542023" />
    </clipPath>
    <mask
       maskUnits="userSpaceOnUse"
       id="mask2781">
      <circle
         style="display:inline;fill:#f6d32d;fill-opacity:1;stroke:none;stroke-width:0;stroke-miterlimit:4;stroke-dasharray:none"
         id="circle2783"
         cx="104.91895"
         cy="152.39404"
         r="82.542023" />
    </mask>
  </defs>
  <metadata
     id="metadata165">
    <rdf:RDF>
      <cc:Work
         rdf:about="">
        <dc:format>image/svg+xml</dc:format>
        <dc:type
           rdf:resource="http://purl.org/dc/dcmitype/StillImage" />
        <dc:title></dc:title>
      </cc:Work>
    </rdf:RDF>
  </metadata>
  <g
     id="layer1"
     style="display:inline"
     transform="translate(-13.352196,-63.22842)">
    <circle
       style="fill:#b69f35;fill-opacity:1;stroke:none;stroke-width:0;stroke-miterlimit:4;stroke-dasharray:none"
       id="path1923"
       cx="104.91895"
       cy="160.51619"
       r="82.493332" />
    <circle
       style="display:inline;fill:#f9f06b;fill-opacity:1;stroke:none;stroke-width:0;stroke-miterlimit:4;stroke-dasharray:none"
       id="circle2787"
       cx="104.91922"
       cy="151.78841"
       r="82.493332" />
    <path
       id="circle1176"
       style="display:inline;fill:#f6d32d;fill-opacity:1;stroke:none;stroke-width:0;stroke-miterlimit:4;stroke-dasharray:none"
       d="M 104.9187,124.34262 A 82.49333,82.49333 0 0 0 27.152814,179.312 82.49333,82.49333 0 0 0 104.9187,234.28187 82.49333,82.49333 0 0 0 182.68509,179.312 82.49333,82.49333 0 0 0 104.9187,124.34262 Z" />
    <path
       id="circle1174"
       style="display:inline;fill:#e5a50a;fill-opacity:1;stroke:none;stroke-width:0;stroke-miterlimit:4;stroke-dasharray:none"
       d="m 104.9187,179.38998 a 82.49333,82.49333 0 0 0 -61.440086,27.4462 82.49333,82.49333 0 0 0 61.440086,27.44569 82.49333,82.49333 0 0 0 61.4406,-27.4462 82.49333,82.49333 0 0 0 -61.4406,-27.44569 z" />
  </g>
</svg>
